<svg width="222" height="44" viewBox="0 0 222 44" xmlns="http://www.w3.org/2000/svg"><title>Combined Shape</title><path d="M20.018 33.322l-.606 6.927 4.776-6.54-.664-2.635-3.506 2.248zm-1.33-11.708c.464 0 .7.315.85.52.142.18.173.205.229.205.055 0 .087-.024.22-.205.158-.205.394-.52.86-.52.473 0 .709.315.86.52.133.18.164.205.227.205.056 0 .087-.024.22-.205.159-.205.395-.52.86-.52h.394v3.522c0 .639-.52 1.159-1.15 1.159h-1.632l-.386 4.412 2.75-1.741 1.884-1.198 3.917-2.49L18.624 7.613 8.449 25.28l3.917 2.489 1.884 1.198 2.884 1.836-.449-4.507h-1.623c-.662 0-1.238-.545-1.238-1.159v-3.522h.394c.442 0 .71.284.899.488.157.166.228.237.323.237.055 0 .087-.024.22-.205.158-.205.395-.52.86-.52.473 0 .701.315.859.52.134.18.166.205.22.205.064 0 .095-.024.229-.205.158-.205.386-.52.86-.52zm-5.636 12.088l5.036 6.603-.685-6.852-3.69-2.366-.66 2.615zm.775 4.917l-3.345-4.39.134-.551.996-3.94-4.187-2.684-3.01 5.21a.326.326 0 0 0 .108.44l9.304 5.915zM18.64 2.145l-1.892 3.278.797.504.047.032 1.056.67 1.063-.678.032-.024.765-.48-1.868-3.302zm6.985 27.581l1.117 4.456-.323.473-2.603 3.566 8.832-5.616a.326.326 0 0 0 .108-.438l-2.984-5.19.02.077-4.167 2.672zm-4.07-24.565L36.91 32.354l-7.085 4.476-9.481 6.146L18.766 44l-.142-.095L17.166 43l-.008-.008L0 32.354 15.692 5.138 18.64.024 18.648 0l.008.016 2.9 5.145zM20.2 19.671l-.039.024-1.513.969-1.522-.97-1.489-.944 3.003-5.21h.016l2.994 5.21-1.45.921zm28.67-9.037h14.205v3.705h-10.13v5.156h9.266V23.2h-9.265v5.342H63.26v3.705H48.869V10.634zm15.502 0h17.171v3.705h-6.547v17.908H70.92V14.34h-6.548v-3.705zm19.21 0h4.076v8.923h8.153v-8.923h4.077v21.613h-4.077v-8.985h-8.153v8.985h-4.076V10.634zm19.888 0h7.227l4.941 17.785h.371V10.634h4.077v21.613h-7.227l-4.941-17.785h-.371v17.785h-4.077V10.634zm19.21 13.832c0-4.631 3.18-7.966 7.69-7.966 4.447 0 7.443 3.119 7.443 7.72v1.45h-11.15c.155 2.1 1.607 3.675 3.83 3.675 2.162 0 3.305-1.204 3.83-2.285l3.18 1.853c-1.05 1.605-2.84 3.766-6.948 3.766-4.57 0-7.875-3.458-7.875-8.213zm4.015-1.39h7.164c-.216-2.006-1.513-3.241-3.52-3.241-2.193 0-3.397 1.297-3.644 3.242zm11.797-6.143h3.891l1.822 11.98h.37l2.41-11.98h5.373l2.41 11.98h.37l1.822-11.98h3.891l-3.026 15.314h-5.56l-2.408-11.98h-.37l-2.41 11.98h-5.558l-3.027-15.314zm22.483-6.3h4.632l4.725 9.202h.556l4.726-9.201h4.632l-7.597 14.295v7.318h-4.077V24.93l-7.597-14.295zm14.947 13.957c0-4.817 3.521-8.09 8.03-8.09 4.509 0 8.03 3.273 8.03 8.09s-3.521 8.09-8.03 8.09c-4.509 0-8.03-3.273-8.03-8.09zm3.892 0c0 2.779 1.667 4.631 4.138 4.631 2.47 0 4.138-1.852 4.138-4.631s-1.667-4.632-4.138-4.632c-2.47 0-4.138 1.853-4.138 4.632zm18.53-7.657v2.223h.432c.587-1.699 1.884-2.285 3.83-2.285h1.482v3.396h-2.286c-1.976 0-3.397 1.05-3.397 3.211v8.77h-3.891V16.932h3.83zm23.656 0l-6.949 5.773 6.702 9.541h-4.509l-4.941-7.225-2.347 1.945v5.28h-3.892V10.634h3.892v11.548h.37l6.239-5.25H222z" fill="#262B44" fill-rule="evenodd"/></svg>